<mxfile host="app.diagrams.net" modified="2024-02-15T16:40:09.687Z" agent="Mozilla/5.0 (Windows NT 10.0; Win64; x64) AppleWebKit/537.36 (KHTML, like Gecko) Chrome/114.0.0.0 Safari/537.36" etag="0w93yDofPg_nhwjrkN_e" version="23.1.4" type="github">
  <diagram name="Trang-1" id="ojN81It_VC9VHGHLu68o">
    <mxGraphModel dx="2229" dy="503" grid="1" gridSize="10" guides="1" tooltips="1" connect="0" arrows="0" fold="1" page="1" pageScale="1" pageWidth="827" pageHeight="1169" math="0" shadow="0">
      <root>
        <mxCell id="0" />
        <mxCell id="1" parent="0" />
        <mxCell id="70XVLi85CoOnEWCYY8Vq-55" value="" style="rounded=1;whiteSpace=wrap;html=1;strokeWidth=2;fillColor=#f5f5f5;fontColor=#333333;strokeColor=#666666;" vertex="1" parent="1">
          <mxGeometry x="1007" y="310" width="223" height="140" as="geometry" />
        </mxCell>
        <mxCell id="70XVLi85CoOnEWCYY8Vq-45" value="" style="rounded=1;whiteSpace=wrap;html=1;strokeWidth=2;fillColor=#f5f5f5;fontColor=#333333;strokeColor=#666666;" vertex="1" parent="1">
          <mxGeometry x="667" y="310" width="270" height="140" as="geometry" />
        </mxCell>
        <mxCell id="Rq4Nq84HAXk63PqMcCeA-216" value="" style="rounded=1;whiteSpace=wrap;html=1;strokeWidth=2;fillColor=#f5f5f5;fontColor=#333333;strokeColor=#666666;" parent="1" vertex="1">
          <mxGeometry x="275" y="365" width="230" height="195" as="geometry" />
        </mxCell>
        <mxCell id="Rq4Nq84HAXk63PqMcCeA-212" value="" style="rounded=1;whiteSpace=wrap;html=1;strokeWidth=2;fillColor=#f5f5f5;fontColor=#333333;strokeColor=#666666;" parent="1" vertex="1">
          <mxGeometry x="270" y="200" width="360" height="125.75" as="geometry" />
        </mxCell>
        <mxCell id="Rq4Nq84HAXk63PqMcCeA-210" value="" style="rounded=1;whiteSpace=wrap;html=1;strokeWidth=2;fillColor=#f5f5f5;fontColor=#333333;strokeColor=#666666;" parent="1" vertex="1">
          <mxGeometry x="-140" y="330" width="380" height="130" as="geometry" />
        </mxCell>
        <mxCell id="Rq4Nq84HAXk63PqMcCeA-57" value="" style="endArrow=none;html=1;rounded=1;strokeWidth=5;fillColor=#ffe6cc;strokeColor=#d79b00;" parent="1" edge="1">
          <mxGeometry width="50" height="50" relative="1" as="geometry">
            <mxPoint x="-169" y="399.17" as="sourcePoint" />
            <mxPoint x="270" y="400" as="targetPoint" />
          </mxGeometry>
        </mxCell>
        <mxCell id="Rq4Nq84HAXk63PqMcCeA-58" value="" style="endArrow=none;html=1;rounded=1;strokeWidth=5;strokeColor=#b85450;fillColor=#f8cecc;" parent="1" edge="1">
          <mxGeometry width="50" height="50" relative="1" as="geometry">
            <mxPoint x="-161" y="388.40999999999997" as="sourcePoint" />
            <mxPoint x="270" y="389" as="targetPoint" />
          </mxGeometry>
        </mxCell>
        <mxCell id="Rq4Nq84HAXk63PqMcCeA-59" value="" style="group" parent="1" vertex="1" connectable="0">
          <mxGeometry x="-250" y="350" width="60" height="70" as="geometry" />
        </mxCell>
        <mxCell id="Rq4Nq84HAXk63PqMcCeA-60" value="" style="shape=note;whiteSpace=wrap;html=1;backgroundOutline=1;darkOpacity=0.05;rounded=1;size=20;strokeWidth=2;" parent="Rq4Nq84HAXk63PqMcCeA-59" vertex="1">
          <mxGeometry x="3.1578947368421053" width="50.526315789473685" height="66.66666666666666" as="geometry" />
        </mxCell>
        <mxCell id="Rq4Nq84HAXk63PqMcCeA-61" value="&lt;font data-font-src=&quot;https://fonts.googleapis.com/css?family=Maven+Pro&quot; face=&quot;Maven Pro&quot; color=&quot;#ffffff&quot;&gt;&lt;b&gt;&lt;font style=&quot;font-size: 20px;&quot;&gt;Fastq&lt;/font&gt;&lt;/b&gt;&lt;/font&gt;" style="rounded=1;whiteSpace=wrap;html=1;strokeWidth=2;fillColor=#000000;" parent="Rq4Nq84HAXk63PqMcCeA-59" vertex="1">
          <mxGeometry y="26.666666666666664" width="56.84210526315789" height="26.666666666666664" as="geometry" />
        </mxCell>
        <mxCell id="Rq4Nq84HAXk63PqMcCeA-62" value="" style="shape=note;whiteSpace=wrap;html=1;backgroundOutline=1;darkOpacity=0.05;rounded=1;size=20;strokeWidth=2;" parent="Rq4Nq84HAXk63PqMcCeA-59" vertex="1">
          <mxGeometry x="6.315789473684211" y="3.333333333333333" width="50.526315789473685" height="66.66666666666666" as="geometry" />
        </mxCell>
        <mxCell id="Rq4Nq84HAXk63PqMcCeA-63" value="&lt;font data-font-src=&quot;https://fonts.googleapis.com/css?family=Maven+Pro&quot; face=&quot;Maven Pro&quot; color=&quot;#ffffff&quot;&gt;&lt;b&gt;&lt;font style=&quot;font-size: 20px;&quot;&gt;Fastq&lt;/font&gt;&lt;/b&gt;&lt;/font&gt;" style="rounded=1;whiteSpace=wrap;html=1;strokeWidth=2;fillColor=#000000;" parent="Rq4Nq84HAXk63PqMcCeA-59" vertex="1">
          <mxGeometry x="3.1578947368421053" y="29.999999999999996" width="56.84210526315789" height="26.666666666666664" as="geometry" />
        </mxCell>
        <mxCell id="Rq4Nq84HAXk63PqMcCeA-64" value="" style="endArrow=none;html=1;rounded=1;strokeWidth=6;strokeColor=#7EB2DD;shadow=0;" parent="1" source="Rq4Nq84HAXk63PqMcCeA-81" edge="1">
          <mxGeometry width="50" height="50" relative="1" as="geometry">
            <mxPoint x="-179" y="393.58" as="sourcePoint" />
            <mxPoint x="270" y="394" as="targetPoint" />
          </mxGeometry>
        </mxCell>
        <mxCell id="Rq4Nq84HAXk63PqMcCeA-65" value="" style="endArrow=none;html=1;rounded=1;strokeWidth=6;strokeColor=#7EB2DD;shadow=0;" parent="1" target="Rq4Nq84HAXk63PqMcCeA-66" edge="1">
          <mxGeometry width="50" height="50" relative="1" as="geometry">
            <mxPoint x="-179" y="393.58" as="sourcePoint" />
            <mxPoint x="181" y="393.58" as="targetPoint" />
          </mxGeometry>
        </mxCell>
        <mxCell id="Rq4Nq84HAXk63PqMcCeA-66" value="" style="ellipse;whiteSpace=wrap;html=1;aspect=fixed;rounded=1;rotation=0;strokeWidth=2;fillColor=#100f0f;" parent="1" vertex="1">
          <mxGeometry x="-179" y="383.33" width="20" height="20" as="geometry" />
        </mxCell>
        <mxCell id="Rq4Nq84HAXk63PqMcCeA-67" value="" style="endArrow=none;html=1;rounded=1;strokeWidth=6;strokeColor=#7EB2DD;shadow=0;" parent="1" source="Rq4Nq84HAXk63PqMcCeA-66" target="Rq4Nq84HAXk63PqMcCeA-68" edge="1">
          <mxGeometry width="50" height="50" relative="1" as="geometry">
            <mxPoint x="-159" y="393" as="sourcePoint" />
            <mxPoint x="181" y="393.58" as="targetPoint" />
          </mxGeometry>
        </mxCell>
        <mxCell id="Rq4Nq84HAXk63PqMcCeA-68" value="" style="ellipse;whiteSpace=wrap;html=1;aspect=fixed;rounded=1;rotation=0;strokeWidth=2;shadow=0;" parent="1" vertex="1">
          <mxGeometry x="-119" y="383.33" width="20" height="20" as="geometry" />
        </mxCell>
        <mxCell id="Rq4Nq84HAXk63PqMcCeA-69" value="FastQC" style="rounded=1;whiteSpace=wrap;html=1;strokeColor=none;fillColor=none;fontStyle=1" parent="1" vertex="1">
          <mxGeometry x="-129" y="420" width="40" height="10" as="geometry" />
        </mxCell>
        <mxCell id="Rq4Nq84HAXk63PqMcCeA-70" value="" style="endArrow=none;html=1;rounded=1;strokeWidth=6;strokeColor=#7EB2DD;shadow=0;" parent="1" source="Rq4Nq84HAXk63PqMcCeA-68" target="Rq4Nq84HAXk63PqMcCeA-71" edge="1">
          <mxGeometry width="50" height="50" relative="1" as="geometry">
            <mxPoint x="-99" y="393" as="sourcePoint" />
            <mxPoint x="181" y="393.58" as="targetPoint" />
          </mxGeometry>
        </mxCell>
        <mxCell id="Rq4Nq84HAXk63PqMcCeA-71" value="" style="ellipse;whiteSpace=wrap;html=1;aspect=fixed;rounded=1;rotation=0;strokeWidth=2;shadow=0;" parent="1" vertex="1">
          <mxGeometry x="-49" y="383.33" width="20" height="20" as="geometry" />
        </mxCell>
        <mxCell id="Rq4Nq84HAXk63PqMcCeA-72" value="Fastp" style="rounded=1;whiteSpace=wrap;html=1;strokeColor=none;fillColor=none;fontStyle=1" parent="1" vertex="1">
          <mxGeometry x="-59" y="420" width="40" height="10" as="geometry" />
        </mxCell>
        <mxCell id="Rq4Nq84HAXk63PqMcCeA-73" value="" style="endArrow=none;html=1;rounded=1;strokeWidth=6;strokeColor=#7EB2DD;shadow=0;" parent="1" source="Rq4Nq84HAXk63PqMcCeA-71" target="Rq4Nq84HAXk63PqMcCeA-74" edge="1">
          <mxGeometry width="50" height="50" relative="1" as="geometry">
            <mxPoint x="-29" y="393" as="sourcePoint" />
            <mxPoint x="181" y="393.58" as="targetPoint" />
          </mxGeometry>
        </mxCell>
        <mxCell id="Rq4Nq84HAXk63PqMcCeA-74" value="" style="ellipse;whiteSpace=wrap;html=1;aspect=fixed;rounded=1;rotation=0;strokeWidth=2;shadow=0;" parent="1" vertex="1">
          <mxGeometry x="21" y="383.33" width="20" height="20" as="geometry" />
        </mxCell>
        <mxCell id="Rq4Nq84HAXk63PqMcCeA-75" value="FastQC" style="rounded=1;whiteSpace=wrap;html=1;strokeColor=none;fillColor=none;fontStyle=1" parent="1" vertex="1">
          <mxGeometry x="11" y="420" width="40" height="10" as="geometry" />
        </mxCell>
        <mxCell id="Rq4Nq84HAXk63PqMcCeA-77" value="" style="endArrow=none;html=1;rounded=1;strokeWidth=6;strokeColor=#7EB2DD;shadow=0;" parent="1" source="Rq4Nq84HAXk63PqMcCeA-74" target="Rq4Nq84HAXk63PqMcCeA-76" edge="1">
          <mxGeometry width="50" height="50" relative="1" as="geometry">
            <mxPoint x="41" y="393" as="sourcePoint" />
            <mxPoint x="181" y="393.58" as="targetPoint" />
          </mxGeometry>
        </mxCell>
        <mxCell id="Rq4Nq84HAXk63PqMcCeA-76" value="" style="ellipse;whiteSpace=wrap;html=1;aspect=fixed;rounded=1;rotation=0;strokeWidth=2;shadow=0;" parent="1" vertex="1">
          <mxGeometry x="100" y="383.33" width="20" height="20" as="geometry" />
        </mxCell>
        <mxCell id="Rq4Nq84HAXk63PqMcCeA-80" value="Kraken2" style="rounded=1;whiteSpace=wrap;html=1;strokeColor=none;fillColor=none;fontStyle=1" parent="1" vertex="1">
          <mxGeometry x="90" y="420" width="40" height="10" as="geometry" />
        </mxCell>
        <mxCell id="Rq4Nq84HAXk63PqMcCeA-82" value="" style="endArrow=none;html=1;rounded=1;strokeWidth=6;strokeColor=#7EB2DD;shadow=0;" parent="1" source="Rq4Nq84HAXk63PqMcCeA-76" target="Rq4Nq84HAXk63PqMcCeA-81" edge="1">
          <mxGeometry width="50" height="50" relative="1" as="geometry">
            <mxPoint x="120" y="393" as="sourcePoint" />
            <mxPoint x="270" y="394" as="targetPoint" />
          </mxGeometry>
        </mxCell>
        <mxCell id="Rq4Nq84HAXk63PqMcCeA-81" value="" style="ellipse;whiteSpace=wrap;html=1;aspect=fixed;rounded=1;rotation=0;strokeWidth=2;shadow=0;" parent="1" vertex="1">
          <mxGeometry x="170" y="383.33" width="20" height="20" as="geometry" />
        </mxCell>
        <mxCell id="Rq4Nq84HAXk63PqMcCeA-84" value="Falcon-meta" style="rounded=1;whiteSpace=wrap;html=1;strokeColor=none;fillColor=none;fontStyle=1;arcSize=50;" parent="1" vertex="1">
          <mxGeometry x="140" y="420" width="75" height="10" as="geometry" />
        </mxCell>
        <mxCell id="Rq4Nq84HAXk63PqMcCeA-90" value="" style="endArrow=none;html=1;rounded=1;strokeWidth=4;strokeColor=#d79b00;fillColor=#ffe6cc;" parent="1" edge="1">
          <mxGeometry width="50" height="50" relative="1" as="geometry">
            <mxPoint x="270" y="400" as="sourcePoint" />
            <mxPoint x="400" y="490" as="targetPoint" />
            <Array as="points">
              <mxPoint x="270" y="430" />
              <mxPoint x="280" y="460" />
              <mxPoint x="320" y="490" />
              <mxPoint x="410" y="490" />
              <mxPoint x="360" y="490" />
            </Array>
          </mxGeometry>
        </mxCell>
        <mxCell id="Rq4Nq84HAXk63PqMcCeA-97" value="" style="endArrow=none;html=1;rounded=1;strokeWidth=4;fillColor=#ffe6cc;strokeColor=#d79b00;" parent="1" edge="1">
          <mxGeometry width="50" height="50" relative="1" as="geometry">
            <mxPoint x="412" y="450" as="sourcePoint" />
            <mxPoint x="372" y="490" as="targetPoint" />
            <Array as="points">
              <mxPoint x="392" y="450" />
              <mxPoint x="372" y="470" />
            </Array>
          </mxGeometry>
        </mxCell>
        <mxCell id="Rq4Nq84HAXk63PqMcCeA-98" value="" style="endArrow=none;html=1;rounded=1;strokeWidth=4;fillColor=#ffe6cc;strokeColor=#d79b00;" parent="1" source="Rq4Nq84HAXk63PqMcCeA-162" edge="1">
          <mxGeometry width="50" height="50" relative="1" as="geometry">
            <mxPoint x="412" y="530" as="sourcePoint" />
            <mxPoint x="372" y="490" as="targetPoint" />
            <Array as="points" />
          </mxGeometry>
        </mxCell>
        <mxCell id="Rq4Nq84HAXk63PqMcCeA-99" value="" style="endArrow=none;html=1;rounded=1;strokeWidth=4;fillColor=#ffe6cc;strokeColor=#d79b00;" parent="1" source="Rq4Nq84HAXk63PqMcCeA-162" edge="1">
          <mxGeometry width="50" height="50" relative="1" as="geometry">
            <mxPoint x="372" y="490" as="sourcePoint" />
            <mxPoint x="412" y="490" as="targetPoint" />
          </mxGeometry>
        </mxCell>
        <mxCell id="Rq4Nq84HAXk63PqMcCeA-100" value="" style="ellipse;whiteSpace=wrap;html=1;aspect=fixed;rounded=1;rotation=0;strokeWidth=2;shadow=0;" parent="1" vertex="1">
          <mxGeometry x="412" y="440" width="20" height="20" as="geometry" />
        </mxCell>
        <mxCell id="Rq4Nq84HAXk63PqMcCeA-101" value="" style="endArrow=none;html=1;rounded=1;strokeWidth=4;fillColor=#ffe6cc;strokeColor=#d79b00;" parent="1" edge="1">
          <mxGeometry width="50" height="50" relative="1" as="geometry">
            <mxPoint x="432" y="450" as="sourcePoint" />
            <mxPoint x="472" y="490" as="targetPoint" />
            <Array as="points">
              <mxPoint x="452" y="450" />
              <mxPoint x="472" y="470" />
            </Array>
          </mxGeometry>
        </mxCell>
        <mxCell id="Rq4Nq84HAXk63PqMcCeA-102" value="" style="ellipse;whiteSpace=wrap;html=1;aspect=fixed;rounded=1;rotation=0;strokeWidth=2;shadow=0;" parent="1" vertex="1">
          <mxGeometry x="412" y="480" width="20" height="20" as="geometry" />
        </mxCell>
        <mxCell id="Rq4Nq84HAXk63PqMcCeA-103" value="" style="ellipse;whiteSpace=wrap;html=1;aspect=fixed;rounded=1;rotation=0;strokeWidth=2;shadow=0;" parent="1" vertex="1">
          <mxGeometry x="412" y="520" width="20" height="20" as="geometry" />
        </mxCell>
        <mxCell id="Rq4Nq84HAXk63PqMcCeA-104" value="" style="endArrow=none;html=1;rounded=1;strokeWidth=4;fillColor=#ffe6cc;strokeColor=#d79b00;" parent="1" source="Rq4Nq84HAXk63PqMcCeA-166" edge="1">
          <mxGeometry width="50" height="50" relative="1" as="geometry">
            <mxPoint x="432" y="489.47" as="sourcePoint" />
            <mxPoint x="472" y="489.47" as="targetPoint" />
          </mxGeometry>
        </mxCell>
        <mxCell id="Rq4Nq84HAXk63PqMcCeA-105" value="" style="endArrow=none;html=1;rounded=1;strokeWidth=4;fillColor=#ffe6cc;strokeColor=#d79b00;" parent="1" source="Rq4Nq84HAXk63PqMcCeA-166" edge="1">
          <mxGeometry width="50" height="50" relative="1" as="geometry">
            <mxPoint x="432" y="530" as="sourcePoint" />
            <mxPoint x="472" y="490" as="targetPoint" />
            <Array as="points" />
          </mxGeometry>
        </mxCell>
        <mxCell id="Rq4Nq84HAXk63PqMcCeA-106" value="Unicycler" style="rounded=1;whiteSpace=wrap;html=1;strokeColor=none;fillColor=none;fontStyle=1" parent="1" vertex="1">
          <mxGeometry x="402" y="420" width="40" height="10" as="geometry" />
        </mxCell>
        <mxCell id="Rq4Nq84HAXk63PqMcCeA-107" value="MetaSPAdes" style="rounded=1;whiteSpace=wrap;html=1;strokeColor=none;fillColor=none;fontStyle=1;arcSize=50;" parent="1" vertex="1">
          <mxGeometry x="402" y="464" width="40" height="10" as="geometry" />
        </mxCell>
        <mxCell id="Rq4Nq84HAXk63PqMcCeA-108" value="Megahit" style="rounded=1;whiteSpace=wrap;html=1;strokeColor=none;fillColor=none;fontStyle=1;arcSize=50;" parent="1" vertex="1">
          <mxGeometry x="402" y="503" width="40" height="10" as="geometry" />
        </mxCell>
        <mxCell id="Rq4Nq84HAXk63PqMcCeA-127" value="" style="endArrow=none;html=1;rounded=1;strokeWidth=4;strokeColor=#b85450;fillColor=#f8cecc;" parent="1" edge="1">
          <mxGeometry width="50" height="50" relative="1" as="geometry">
            <mxPoint x="270" y="390" as="sourcePoint" />
            <mxPoint x="620" y="270" as="targetPoint" />
            <Array as="points">
              <mxPoint x="270" y="330" />
              <mxPoint x="310" y="280" />
              <mxPoint x="330" y="270" />
              <mxPoint x="350" y="270" />
            </Array>
          </mxGeometry>
        </mxCell>
        <mxCell id="Rq4Nq84HAXk63PqMcCeA-130" value="Bowtie2" style="rounded=1;whiteSpace=wrap;html=1;strokeColor=none;fillColor=none;fontStyle=1" parent="1" vertex="1">
          <mxGeometry x="305" y="240" width="70" height="10" as="geometry" />
        </mxCell>
        <mxCell id="Rq4Nq84HAXk63PqMcCeA-133" value="Samtools" style="rounded=1;whiteSpace=wrap;html=1;strokeColor=none;fillColor=none;fontStyle=1" parent="1" vertex="1">
          <mxGeometry x="365" y="240" width="70" height="10" as="geometry" />
        </mxCell>
        <mxCell id="Rq4Nq84HAXk63PqMcCeA-135" value="" style="ellipse;whiteSpace=wrap;html=1;aspect=fixed;rounded=1;rotation=0;strokeWidth=2;shadow=0;" parent="1" vertex="1">
          <mxGeometry x="285" y="465" width="20" height="20" as="geometry" />
        </mxCell>
        <mxCell id="Rq4Nq84HAXk63PqMcCeA-136" value="BWA" style="rounded=1;whiteSpace=wrap;html=1;strokeColor=none;fillColor=none;fontStyle=1;arcSize=50;" parent="1" vertex="1">
          <mxGeometry x="257" y="495" width="70" height="10" as="geometry" />
        </mxCell>
        <mxCell id="Rq4Nq84HAXk63PqMcCeA-139" value="" style="ellipse;whiteSpace=wrap;html=1;aspect=fixed;rounded=1;rotation=0;strokeWidth=2;shadow=0;" parent="1" vertex="1">
          <mxGeometry x="330" y="260" width="20" height="20" as="geometry" />
        </mxCell>
        <mxCell id="Rq4Nq84HAXk63PqMcCeA-147" value="" style="ellipse;whiteSpace=wrap;html=1;aspect=fixed;rounded=1;rotation=0;strokeWidth=2;shadow=0;" parent="1" vertex="1">
          <mxGeometry x="387" y="262" width="20" height="20" as="geometry" />
        </mxCell>
        <mxCell id="Rq4Nq84HAXk63PqMcCeA-152" value="" style="endArrow=none;html=1;rounded=1;strokeWidth=5;strokeColor=#7EB2DD;" parent="1" source="Rq4Nq84HAXk63PqMcCeA-153" edge="1">
          <mxGeometry width="50" height="50" relative="1" as="geometry">
            <mxPoint x="285" y="392.62" as="sourcePoint" />
            <mxPoint x="260" y="393" as="targetPoint" />
          </mxGeometry>
        </mxCell>
        <mxCell id="Rq4Nq84HAXk63PqMcCeA-153" value="" style="ellipse;whiteSpace=wrap;html=1;aspect=fixed;rounded=1;rotation=0;strokeWidth=2;shadow=0;" parent="1" vertex="1">
          <mxGeometry x="300" y="383.33" width="20" height="20" as="geometry" />
        </mxCell>
        <mxCell id="Rq4Nq84HAXk63PqMcCeA-154" value="" style="endArrow=none;html=1;rounded=1;strokeWidth=5;strokeColor=#7EB2DD;" parent="1" edge="1">
          <mxGeometry width="50" height="50" relative="1" as="geometry">
            <mxPoint x="320" y="400" as="sourcePoint" />
            <mxPoint x="370" y="490" as="targetPoint" />
            <Array as="points">
              <mxPoint x="360" y="430" />
            </Array>
          </mxGeometry>
        </mxCell>
        <mxCell id="Rq4Nq84HAXk63PqMcCeA-155" value="Krakentools" style="rounded=1;whiteSpace=wrap;html=1;strokeColor=none;fillColor=none;fontStyle=1;arcSize=50;" parent="1" vertex="1">
          <mxGeometry x="280" y="430" width="70" height="10" as="geometry" />
        </mxCell>
        <mxCell id="Rq4Nq84HAXk63PqMcCeA-164" value="" style="endArrow=none;html=1;rounded=1;strokeWidth=4;fillColor=#ffe6cc;strokeColor=#d79b00;" parent="1" target="Rq4Nq84HAXk63PqMcCeA-162" edge="1">
          <mxGeometry width="50" height="50" relative="1" as="geometry">
            <mxPoint x="412" y="530" as="sourcePoint" />
            <mxPoint x="372" y="490" as="targetPoint" />
            <Array as="points">
              <mxPoint x="392" y="530" />
              <mxPoint x="372" y="510" />
            </Array>
          </mxGeometry>
        </mxCell>
        <mxCell id="Rq4Nq84HAXk63PqMcCeA-165" value="" style="endArrow=none;html=1;rounded=1;strokeWidth=4;fillColor=#ffe6cc;strokeColor=#d79b00;" parent="1" target="Rq4Nq84HAXk63PqMcCeA-162" edge="1">
          <mxGeometry width="50" height="50" relative="1" as="geometry">
            <mxPoint x="372" y="490" as="sourcePoint" />
            <mxPoint x="412" y="490" as="targetPoint" />
          </mxGeometry>
        </mxCell>
        <mxCell id="Rq4Nq84HAXk63PqMcCeA-162" value="" style="ellipse;whiteSpace=wrap;html=1;aspect=fixed;rounded=1;rotation=0;strokeWidth=2;fillColor=#FFFFFF;" parent="1" vertex="1">
          <mxGeometry x="365" y="485" width="10" height="10" as="geometry" />
        </mxCell>
        <mxCell id="Rq4Nq84HAXk63PqMcCeA-167" value="" style="endArrow=none;html=1;rounded=1;strokeWidth=4;fillColor=#ffe6cc;strokeColor=#d79b00;" parent="1" target="Rq4Nq84HAXk63PqMcCeA-166" edge="1">
          <mxGeometry width="50" height="50" relative="1" as="geometry">
            <mxPoint x="432" y="530" as="sourcePoint" />
            <mxPoint x="472" y="490" as="targetPoint" />
            <Array as="points">
              <mxPoint x="452" y="530" />
              <mxPoint x="472" y="510" />
            </Array>
          </mxGeometry>
        </mxCell>
        <mxCell id="Rq4Nq84HAXk63PqMcCeA-168" value="" style="endArrow=none;html=1;rounded=1;strokeWidth=4;fillColor=#ffe6cc;strokeColor=#d79b00;" parent="1" edge="1">
          <mxGeometry width="50" height="50" relative="1" as="geometry">
            <mxPoint x="432" y="489.47" as="sourcePoint" />
            <mxPoint x="590" y="490" as="targetPoint" />
          </mxGeometry>
        </mxCell>
        <mxCell id="Rq4Nq84HAXk63PqMcCeA-166" value="" style="ellipse;whiteSpace=wrap;html=1;aspect=fixed;rounded=1;rotation=0;strokeWidth=2;fillColor=#FFFFFF;" parent="1" vertex="1">
          <mxGeometry x="470" y="485" width="10" height="10" as="geometry" />
        </mxCell>
        <mxCell id="Rq4Nq84HAXk63PqMcCeA-170" value="" style="ellipse;whiteSpace=wrap;html=1;aspect=fixed;rounded=1;rotation=0;strokeWidth=2;shadow=0;" parent="1" vertex="1">
          <mxGeometry x="439.5" y="262" width="22" height="22" as="geometry" />
        </mxCell>
        <mxCell id="Rq4Nq84HAXk63PqMcCeA-174" value="Picard" style="rounded=1;whiteSpace=wrap;html=1;strokeColor=none;fillColor=none;fontStyle=1" parent="1" vertex="1">
          <mxGeometry x="418" y="240" width="70" height="10" as="geometry" />
        </mxCell>
        <mxCell id="Rq4Nq84HAXk63PqMcCeA-175" value="" style="ellipse;whiteSpace=wrap;html=1;aspect=fixed;rounded=1;rotation=0;strokeWidth=2;shadow=0;" parent="1" vertex="1">
          <mxGeometry x="500" y="262" width="22" height="22" as="geometry" />
        </mxCell>
        <mxCell id="Rq4Nq84HAXk63PqMcCeA-177" value="BCFtools" style="rounded=1;whiteSpace=wrap;html=1;strokeColor=none;fillColor=none;fontStyle=1" parent="1" vertex="1">
          <mxGeometry x="476" y="240" width="70" height="10" as="geometry" />
        </mxCell>
        <mxCell id="Rq4Nq84HAXk63PqMcCeA-179" value="" style="ellipse;whiteSpace=wrap;html=1;aspect=fixed;rounded=1;rotation=0;strokeWidth=2;shadow=0;" parent="1" vertex="1">
          <mxGeometry x="560" y="263" width="20" height="20" as="geometry" />
        </mxCell>
        <mxCell id="Rq4Nq84HAXk63PqMcCeA-182" value="BCFtools" style="rounded=1;whiteSpace=wrap;html=1;strokeColor=none;fillColor=none;fontStyle=1" parent="1" vertex="1">
          <mxGeometry x="540" y="240" width="70" height="10" as="geometry" />
        </mxCell>
        <mxCell id="Rq4Nq84HAXk63PqMcCeA-211" value="1. Kiểm soát chất lượng và phân tích thành phần metagenomics" style="rounded=1;whiteSpace=wrap;html=1;strokeColor=none;fillColor=none;fontStyle=1;arcSize=50;" parent="1" vertex="1">
          <mxGeometry x="-119" y="350" width="249" height="10" as="geometry" />
        </mxCell>
        <mxCell id="Rq4Nq84HAXk63PqMcCeA-213" value="2. Lắp ráp dựa trên trình tự tham chiếu" style="rounded=1;whiteSpace=wrap;html=1;strokeColor=none;fillColor=none;fontStyle=1;arcSize=50;" parent="1" vertex="1">
          <mxGeometry x="281" y="210" width="339" height="10" as="geometry" />
        </mxCell>
        <mxCell id="Rq4Nq84HAXk63PqMcCeA-217" value="3. Lắp ráp mới" style="rounded=1;whiteSpace=wrap;html=1;strokeColor=none;fillColor=none;fontStyle=1;arcSize=50;" parent="1" vertex="1">
          <mxGeometry x="215" y="378.33" width="339" height="10" as="geometry" />
        </mxCell>
        <mxCell id="70XVLi85CoOnEWCYY8Vq-1" value="" style="endArrow=none;html=1;rounded=1;strokeWidth=4;fillColor=#f8cecc;strokeColor=#b85450;" edge="1" parent="1">
          <mxGeometry width="50" height="50" relative="1" as="geometry">
            <mxPoint x="620" y="270" as="sourcePoint" />
            <mxPoint x="660" y="380" as="targetPoint" />
            <Array as="points">
              <mxPoint x="640" y="270" />
              <mxPoint x="660" y="290" />
            </Array>
          </mxGeometry>
        </mxCell>
        <mxCell id="70XVLi85CoOnEWCYY8Vq-2" value="" style="endArrow=none;html=1;rounded=1;strokeWidth=4;fillColor=#ffe6cc;strokeColor=#d79b00;" edge="1" parent="1">
          <mxGeometry width="50" height="50" relative="1" as="geometry">
            <mxPoint x="590" y="490" as="sourcePoint" />
            <mxPoint x="660" y="380" as="targetPoint" />
            <Array as="points">
              <mxPoint x="610" y="489" />
              <mxPoint x="650" y="470" />
              <mxPoint x="660" y="450" />
            </Array>
          </mxGeometry>
        </mxCell>
        <mxCell id="70XVLi85CoOnEWCYY8Vq-3" value="" style="endArrow=none;html=1;rounded=1;strokeWidth=4;fillColor=#f8cecc;strokeColor=#b85450;" edge="1" parent="1" source="70XVLi85CoOnEWCYY8Vq-61">
          <mxGeometry width="50" height="50" relative="1" as="geometry">
            <mxPoint x="660" y="377.83" as="sourcePoint" />
            <mxPoint x="1200" y="377" as="targetPoint" />
          </mxGeometry>
        </mxCell>
        <mxCell id="70XVLi85CoOnEWCYY8Vq-7" value="" style="endArrow=none;html=1;rounded=1;strokeWidth=4;fillColor=#ffe6cc;strokeColor=#d79b00;" edge="1" parent="1">
          <mxGeometry width="50" height="50" relative="1" as="geometry">
            <mxPoint x="660" y="382.33" as="sourcePoint" />
            <mxPoint x="1200" y="381" as="targetPoint" />
          </mxGeometry>
        </mxCell>
        <mxCell id="70XVLi85CoOnEWCYY8Vq-9" value="" style="endArrow=none;html=1;rounded=1;strokeWidth=4;fillColor=#f8cecc;strokeColor=#b85450;" edge="1" parent="1" target="70XVLi85CoOnEWCYY8Vq-8">
          <mxGeometry width="50" height="50" relative="1" as="geometry">
            <mxPoint x="660" y="377.83" as="sourcePoint" />
            <mxPoint x="990" y="377" as="targetPoint" />
          </mxGeometry>
        </mxCell>
        <mxCell id="70XVLi85CoOnEWCYY8Vq-8" value="" style="ellipse;whiteSpace=wrap;html=1;aspect=fixed;rounded=1;rotation=0;strokeWidth=2;shadow=0;" vertex="1" parent="1">
          <mxGeometry x="680" y="367.33" width="22" height="22" as="geometry" />
        </mxCell>
        <mxCell id="70XVLi85CoOnEWCYY8Vq-19" value="" style="endArrow=none;html=1;rounded=1;strokeWidth=4;fillColor=#f8cecc;strokeColor=#b85450;" edge="1" parent="1" source="70XVLi85CoOnEWCYY8Vq-8" target="70XVLi85CoOnEWCYY8Vq-18">
          <mxGeometry width="50" height="50" relative="1" as="geometry">
            <mxPoint x="702" y="378" as="sourcePoint" />
            <mxPoint x="990" y="377" as="targetPoint" />
          </mxGeometry>
        </mxCell>
        <mxCell id="70XVLi85CoOnEWCYY8Vq-18" value="" style="ellipse;whiteSpace=wrap;html=1;aspect=fixed;rounded=1;rotation=0;strokeWidth=2;shadow=0;" vertex="1" parent="1">
          <mxGeometry x="740" y="367.33" width="22" height="22" as="geometry" />
        </mxCell>
        <mxCell id="70XVLi85CoOnEWCYY8Vq-23" value="QUAST" style="rounded=1;whiteSpace=wrap;html=1;strokeColor=none;fillColor=none;fontStyle=1" vertex="1" parent="1">
          <mxGeometry x="656" y="410" width="70" height="10" as="geometry" />
        </mxCell>
        <mxCell id="70XVLi85CoOnEWCYY8Vq-24" value="CheckV" style="rounded=1;whiteSpace=wrap;html=1;strokeColor=none;fillColor=none;fontStyle=1" vertex="1" parent="1">
          <mxGeometry x="708" y="410" width="70" height="10" as="geometry" />
        </mxCell>
        <mxCell id="70XVLi85CoOnEWCYY8Vq-29" value="Mosdepth" style="rounded=1;whiteSpace=wrap;html=1;strokeColor=none;fillColor=none;fontStyle=1" vertex="1" parent="1">
          <mxGeometry x="770" y="410" width="70" height="10" as="geometry" />
        </mxCell>
        <mxCell id="70XVLi85CoOnEWCYY8Vq-35" value="" style="endArrow=none;html=1;rounded=1;strokeWidth=4;fillColor=#f8cecc;strokeColor=#b85450;" edge="1" parent="1" source="70XVLi85CoOnEWCYY8Vq-18" target="70XVLi85CoOnEWCYY8Vq-34">
          <mxGeometry width="50" height="50" relative="1" as="geometry">
            <mxPoint x="762" y="378" as="sourcePoint" />
            <mxPoint x="990" y="377" as="targetPoint" />
          </mxGeometry>
        </mxCell>
        <mxCell id="70XVLi85CoOnEWCYY8Vq-34" value="" style="ellipse;whiteSpace=wrap;html=1;aspect=fixed;rounded=1;rotation=0;strokeWidth=2;shadow=0;" vertex="1" parent="1">
          <mxGeometry x="850" y="367.33" width="22" height="22" as="geometry" />
        </mxCell>
        <mxCell id="70XVLi85CoOnEWCYY8Vq-21" value="" style="ellipse;whiteSpace=wrap;html=1;aspect=fixed;rounded=1;rotation=0;strokeWidth=2;shadow=0;" vertex="1" parent="1">
          <mxGeometry x="794" y="367.33" width="22" height="22" as="geometry" />
        </mxCell>
        <mxCell id="70XVLi85CoOnEWCYY8Vq-36" value="ANI" style="rounded=1;whiteSpace=wrap;html=1;strokeColor=none;fillColor=none;fontStyle=1" vertex="1" parent="1">
          <mxGeometry x="826" y="410" width="70" height="10" as="geometry" />
        </mxCell>
        <mxCell id="70XVLi85CoOnEWCYY8Vq-38" value="" style="endArrow=none;html=1;rounded=1;strokeWidth=4;fillColor=#f8cecc;strokeColor=#b85450;" edge="1" parent="1" source="70XVLi85CoOnEWCYY8Vq-34" target="70XVLi85CoOnEWCYY8Vq-37">
          <mxGeometry width="50" height="50" relative="1" as="geometry">
            <mxPoint x="872" y="378" as="sourcePoint" />
            <mxPoint x="990" y="377" as="targetPoint" />
          </mxGeometry>
        </mxCell>
        <mxCell id="70XVLi85CoOnEWCYY8Vq-37" value="" style="ellipse;whiteSpace=wrap;html=1;aspect=fixed;rounded=1;rotation=0;strokeWidth=2;shadow=0;" vertex="1" parent="1">
          <mxGeometry x="896" y="367.33" width="22" height="22" as="geometry" />
        </mxCell>
        <mxCell id="70XVLi85CoOnEWCYY8Vq-39" value="Nextclade" style="rounded=1;whiteSpace=wrap;html=1;strokeColor=none;fillColor=none;fontStyle=1" vertex="1" parent="1">
          <mxGeometry x="870" y="410" width="70" height="10" as="geometry" />
        </mxCell>
        <mxCell id="70XVLi85CoOnEWCYY8Vq-42" value="" style="group" vertex="1" connectable="0" parent="1">
          <mxGeometry x="950" y="460" width="64" height="57" as="geometry" />
        </mxCell>
        <mxCell id="70XVLi85CoOnEWCYY8Vq-43" value="" style="shape=note;whiteSpace=wrap;html=1;backgroundOutline=1;darkOpacity=0.05;rounded=1;size=20;strokeWidth=2;" vertex="1" parent="70XVLi85CoOnEWCYY8Vq-42">
          <mxGeometry x="3.555555555555556" width="56.88888888888889" height="56.99999999999999" as="geometry" />
        </mxCell>
        <mxCell id="70XVLi85CoOnEWCYY8Vq-44" value="&lt;font data-font-src=&quot;https://fonts.googleapis.com/css?family=Maven+Pro&quot; face=&quot;Maven Pro&quot; color=&quot;#ffffff&quot;&gt;&lt;b&gt;&lt;font style=&quot;font-size: 20px;&quot;&gt;Fasta&lt;/font&gt;&lt;/b&gt;&lt;/font&gt;" style="rounded=1;whiteSpace=wrap;html=1;strokeWidth=2;fillColor=#000000;" vertex="1" parent="70XVLi85CoOnEWCYY8Vq-42">
          <mxGeometry y="22.799999999999997" width="64" height="22.799999999999997" as="geometry" />
        </mxCell>
        <mxCell id="70XVLi85CoOnEWCYY8Vq-46" value="" style="ellipse;whiteSpace=wrap;html=1;aspect=fixed;rounded=1;rotation=0;strokeWidth=2;fillColor=#100f0f;" vertex="1" parent="1">
          <mxGeometry x="1194" y="367.33" width="20" height="20" as="geometry" />
        </mxCell>
        <mxCell id="70XVLi85CoOnEWCYY8Vq-47" value="" style="group" vertex="1" connectable="0" parent="1">
          <mxGeometry x="1260" y="350" width="70" height="60" as="geometry" />
        </mxCell>
        <mxCell id="70XVLi85CoOnEWCYY8Vq-48" value="" style="shape=note;whiteSpace=wrap;html=1;backgroundOutline=1;darkOpacity=0.05;rounded=1;size=9;strokeWidth=2;" vertex="1" parent="70XVLi85CoOnEWCYY8Vq-47">
          <mxGeometry x="-0.006730769230769231" width="60.58365384615385" height="60" as="geometry" />
        </mxCell>
        <mxCell id="70XVLi85CoOnEWCYY8Vq-49" value="&lt;font data-font-src=&quot;https://fonts.googleapis.com/css?family=Maven+Pro&quot; face=&quot;Maven Pro&quot; color=&quot;#ffffff&quot;&gt;&lt;b&gt;&lt;font style=&quot;font-size: 20px;&quot;&gt;Gff, tbl&lt;/font&gt;&lt;/b&gt;&lt;/font&gt;" style="rounded=1;whiteSpace=wrap;html=1;strokeWidth=2;fillColor=#000000;" vertex="1" parent="70XVLi85CoOnEWCYY8Vq-47">
          <mxGeometry x="-4.839695945945946" y="24.909090909090907" width="70" height="23.999999999999996" as="geometry" />
        </mxCell>
        <mxCell id="70XVLi85CoOnEWCYY8Vq-52" value="" style="endArrow=none;html=1;rounded=1;strokeWidth=4;fillColor=#f8cecc;strokeColor=#b85450;" edge="1" parent="1" source="70XVLi85CoOnEWCYY8Vq-37" target="70XVLi85CoOnEWCYY8Vq-50">
          <mxGeometry width="50" height="50" relative="1" as="geometry">
            <mxPoint x="918" y="378" as="sourcePoint" />
            <mxPoint x="1170" y="377" as="targetPoint" />
          </mxGeometry>
        </mxCell>
        <mxCell id="70XVLi85CoOnEWCYY8Vq-50" value="" style="ellipse;whiteSpace=wrap;html=1;aspect=fixed;rounded=1;rotation=0;strokeWidth=2;shadow=0;" vertex="1" parent="1">
          <mxGeometry x="1030" y="366.33" width="22" height="22" as="geometry" />
        </mxCell>
        <mxCell id="70XVLi85CoOnEWCYY8Vq-40" value="" style="ellipse;whiteSpace=wrap;html=1;aspect=fixed;rounded=1;rotation=0;strokeWidth=2;fillColor=#100f0f;" vertex="1" parent="1">
          <mxGeometry x="970" y="368.33" width="20" height="20" as="geometry" />
        </mxCell>
        <mxCell id="70XVLi85CoOnEWCYY8Vq-54" value="" style="endArrow=none;html=1;rounded=1;strokeWidth=4;fillColor=#f8cecc;strokeColor=#b85450;" edge="1" parent="1" source="70XVLi85CoOnEWCYY8Vq-50" target="70XVLi85CoOnEWCYY8Vq-53">
          <mxGeometry width="50" height="50" relative="1" as="geometry">
            <mxPoint x="1052" y="377" as="sourcePoint" />
            <mxPoint x="1170" y="377" as="targetPoint" />
          </mxGeometry>
        </mxCell>
        <mxCell id="70XVLi85CoOnEWCYY8Vq-53" value="" style="ellipse;whiteSpace=wrap;html=1;aspect=fixed;rounded=1;rotation=0;strokeWidth=2;shadow=0;" vertex="1" parent="1">
          <mxGeometry x="1090" y="366.33" width="22" height="22" as="geometry" />
        </mxCell>
        <mxCell id="70XVLi85CoOnEWCYY8Vq-56" value="Prokka" style="rounded=1;whiteSpace=wrap;html=1;strokeColor=none;fillColor=none;fontStyle=1" vertex="1" parent="1">
          <mxGeometry x="1006" y="410" width="70" height="10" as="geometry" />
        </mxCell>
        <mxCell id="70XVLi85CoOnEWCYY8Vq-58" value="Hmmer" style="rounded=1;whiteSpace=wrap;html=1;strokeColor=none;fillColor=none;fontStyle=1" vertex="1" parent="1">
          <mxGeometry x="1066" y="410" width="70" height="10" as="geometry" />
        </mxCell>
        <mxCell id="70XVLi85CoOnEWCYY8Vq-59" value="4. QC kết quả lắp ráp" style="rounded=1;whiteSpace=wrap;html=1;strokeColor=none;fillColor=none;fontStyle=1;arcSize=50;" vertex="1" parent="1">
          <mxGeometry x="573.5" y="325.75" width="339" height="10" as="geometry" />
        </mxCell>
        <mxCell id="70XVLi85CoOnEWCYY8Vq-60" value="5. Chú giải và QC&lt;br&gt;" style="rounded=1;whiteSpace=wrap;html=1;strokeColor=none;fillColor=none;fontStyle=1;arcSize=50;" vertex="1" parent="1">
          <mxGeometry x="897.5" y="330" width="339" height="10" as="geometry" />
        </mxCell>
        <mxCell id="70XVLi85CoOnEWCYY8Vq-63" value="" style="endArrow=none;html=1;rounded=1;strokeWidth=4;fillColor=#f8cecc;strokeColor=#b85450;" edge="1" parent="1" source="70XVLi85CoOnEWCYY8Vq-53" target="70XVLi85CoOnEWCYY8Vq-61">
          <mxGeometry width="50" height="50" relative="1" as="geometry">
            <mxPoint x="1102" y="377" as="sourcePoint" />
            <mxPoint x="1200" y="377" as="targetPoint" />
          </mxGeometry>
        </mxCell>
        <mxCell id="70XVLi85CoOnEWCYY8Vq-61" value="" style="ellipse;whiteSpace=wrap;html=1;aspect=fixed;rounded=1;rotation=0;strokeWidth=2;shadow=0;" vertex="1" parent="1">
          <mxGeometry x="1140" y="366.33" width="22" height="22" as="geometry" />
        </mxCell>
        <mxCell id="70XVLi85CoOnEWCYY8Vq-64" value="Liftoff" style="rounded=1;whiteSpace=wrap;html=1;strokeColor=none;fillColor=none;fontStyle=1" vertex="1" parent="1">
          <mxGeometry x="1116" y="410" width="70" height="10" as="geometry" />
        </mxCell>
        <mxCell id="70XVLi85CoOnEWCYY8Vq-66" value="" style="ellipse;whiteSpace=wrap;html=1;aspect=fixed;rounded=1;rotation=0;strokeWidth=2;shadow=0;" vertex="1" parent="1">
          <mxGeometry x="327" y="482" width="20" height="20" as="geometry" />
        </mxCell>
        <mxCell id="70XVLi85CoOnEWCYY8Vq-67" value="Samtools" style="rounded=1;whiteSpace=wrap;html=1;strokeColor=none;fillColor=none;fontStyle=1;arcSize=50;" vertex="1" parent="1">
          <mxGeometry x="302" y="517" width="70" height="10" as="geometry" />
        </mxCell>
      </root>
    </mxGraphModel>
  </diagram>
</mxfile>
